<svg version="1.2" xmlns="http://www.w3.org/2000/svg" viewBox="0 0 793 591" width="793" height="591">
	<title>_a0db67c9-7bc9-4a8c-b0c1-6711422e2343</title>
	<style>
		.s0 { fill: #fefffe } 
	</style>
	<path id="Path 0" fill-rule="evenodd" class="s0" d="m14.5 5l153 0.1 4.5 2.3c2.5 1.2 5.9 4 7.5 6.2 2.4 3 7 15.7 20.2 55.9 9.5 28.6 21.5 65.5 26.9 82 5.3 16.5 10.4 32.3 11.4 35 1.1 3.1 2.4 4.9 3.2 4.7 0.7-0.2 6.7-0.6 13.3-0.9 8.8-0.4 14.5-0.1 21.5 1.1 5.2 0.9 13.4 3 18.3 4.6 4.8 1.7 12.4 4.9 16.9 7.1 4.6 2.3 11.9 6.5 16.3 9.3 4.4 2.9 12.5 8.9 18 13.3 5.5 4.4 14.5 12.9 19.9 18.9 5.5 6 10.8 11.8 11.8 12.9 1.8 2 1.6 2.2-8.2 11-5.6 4.9-13.9 11.6-18.5 14.8-4.7 3.1-8.8 5.7-9.3 5.7-0.4 0-5.3-4.3-21.2-19l-3.7 3.2c-2.1 1.7-8.2 7.2-13.5 12.2-9.3 8.7-9.7 9.2-8 10.9 0.9 1.1 4.4 3.4 7.7 5.2 3.3 1.9 9.1 4.6 13 6 4 1.5 10.7 3 15.5 3.5 5 0.5 10.9 0.5 14.3-0.1 3.1-0.5 8.3-1.9 11.4-3.1 3.2-1.2 9.4-4.9 13.8-8.1 4.4-3.3 14.3-12.3 22-20.1 7.7-7.8 17.6-18.6 22-24.1 4.5-5.5 9.7-12.7 11.6-16 2-3.3 4.6-8.7 5.8-12 1.2-3.3 2.5-9.5 2.9-13.8 0.5-4.9 0.3-7.7-0.3-7.7-0.5 0-3.7 1.6-7 3.6-3.3 2-8 5.4-10.5 7.6-2.5 2.2-7 6.8-10 10.2-3 3.4-6.9 7.8-11.5 13.6l-9.5-10.3c-5.2-5.7-13.5-13.9-27.2-26.2l10.3-9.9c5.7-5.5 15.1-13.5 20.9-17.8 5.8-4.3 15.2-10.1 21-13 5.8-2.9 10.7-5.4 11-5.6 0.3-0.2-1-3.1-2.9-6.5-1.9-3.4-6.9-11.8-11.2-18.7-4.2-6.9-8.4-13.1-9.3-13.7-1.4-1.1-2.6 0.3-9.8 11-4.4 6.7-11.9 17.4-16.6 23.7-4.7 6.3-11 14.4-14 18-3.1 3.6-8.3 9.3-11.6 12.8-3.4 3.4-6.4 6.2-6.8 6.2-0.5 0-2.5-1.2-4.5-2.6-2.1-1.4-7.4-4.3-11.8-6.4-4.4-2.1-12.5-5.3-18-7-5.5-1.8-10.3-3.5-10.7-3.9-0.5-0.3 1.8-4.9 5-10.1 3.3-5.2 13-21 21.7-35 8.7-14 26.3-43.1 39.2-64.5 12.9-21.4 24.6-40.5 25.9-42.2 1.4-2 3.9-3.7 6.2-4.4 2-0.6 5.1-0.9 6.7-0.6 1.7 0.4 4.5 2.3 6.5 4.4 2 2.1 8.9 12.8 15.4 23.8 6.6 11 18 30.1 25.5 42.5 7.4 12.4 16.9 29.3 21.1 37.5 4.2 8.3 9.3 20.2 11.4 26.5 2 6.3 4.6 15.8 5.7 21 1 5.2 2.2 15.6 2.5 23 0.4 9.9 0.2 16.3-1 24-0.9 5.8-2.8 14.3-4.2 19-1.4 4.7-4.6 12.6-7.1 17.5-2.5 4.9-6.6 11.9-9.1 15.5-2.6 3.6-7.9 10.2-19.2 23l8 6.5c4.4 3.6 8.3 6.5 8.7 6.5 0.5 0.1 5.1-4.3 10.3-9.7 5.2-5.4 11.8-13.2 14.6-17.3 2.8-4.1 7-11.1 9.2-15.5 2.3-4.4 5.3-11.4 6.7-15.5 1.4-4.1 3.5-11.6 4.6-16.5 1.3-5.9 2.2-14.6 2.6-25 0.4-12 0.1-18.9-1.1-27.5-0.9-6.3-1.5-11.6-1.4-11.8 0.2-0.1 3 0.8 6.3 2.1 3.3 1.3 9.4 4.5 13.5 7.2 4.1 2.6 10.2 7.5 13.6 10.9 4.1 4.1 7.3 8.5 9.7 13.6 2 4.1 4.3 10.6 5.3 14.5 1.2 5.3 1.5 10 1.1 19.5-0.4 9.5-1.1 14.6-3.1 21.3-1.4 4.8-3.8 11.3-5.2 14.5-1.5 3.1-4.5 8.8-6.7 12.7-2.2 3.9-7.2 11.3-11.1 16.5-3.9 5.2-12.7 15.1-19.6 22-6.9 6.9-15.9 14.7-20 17.5-4.1 2.7-9.8 5.7-12.5 6.7-2.7 1-7.5 1.7-10.5 1.8-3.9 0-7.1-0.8-11-2.6-3-1.4-9.5-5.4-14.5-8.9-5-3.5-12.4-8.8-16.5-11.9-4.1-3.1-7.8-5.5-8.2-5.4-0.5 0.2-4.2 3.2-15.8 13.3l3.3 3.3c1.7 1.9 7.5 6.9 12.7 11.1 5.2 4.2 12.2 9.4 15.5 11.6 3.3 2.1 9.6 5.5 14 7.6 4.4 2 10.7 4.3 14 4.9 3.5 0.7 8.8 1 12.8 0.6 3.7-0.3 9.5-1.7 13-3 3.4-1.3 8-3.4 10.2-4.6 2.2-1.2 6-3.6 8.5-5.3 2.5-1.7 7-5.1 10-7.5 3-2.4 9.5-8.3 14.4-13 4.9-4.8 12.3-13 16.5-18.2 4.2-5.2 10.2-13.8 13.4-19 3.1-5.2 7-12.6 8.6-16.5 1.6-3.9 4.1-11.1 5.6-16 1.4-4.9 2.9-12.8 3.2-17.5 0.4-6.3 0.1-10.6-1.2-16.5-1.1-4.8-3.7-11.8-6.6-17.5-2.7-5.2-7.8-12.9-11.3-17-5-6-6.1-7.9-5.5-9.5 0.4-1.1 2.6-7.9 4.9-15 2.3-7.1 11.5-35.5 20.5-63 9-27.5 19.5-59.4 23.3-71 3.8-11.6 7.5-22.1 8.2-23.5 0.7-1.4 2.6-4 4.4-5.8 1.7-1.9 4.7-4 6.6-4.8 3-1.2 15.5-1.4 156.5-1.4l4.2 2.7c2.4 1.6 5.2 4.4 6.2 6.3 1.1 1.9 2 4.7 2.1 6.3 0 1.5-4.5 15.6-10.1 31.5-5.5 15.8-17.7 50.8-27.1 77.7-9.3 26.9-23.2 67.2-30.8 89.5-7.6 22.3-18.2 53.1-23.5 68.5-5.3 15.4-12.1 35-15 43.5-3 8.5-8.7 25.2-12.8 37-4.1 11.8-12.9 36.8-19.5 55.5-6.6 18.7-15 42.1-18.5 52-3.6 9.9-11.7 32.4-18 50-6.4 17.6-13.2 36.5-15.2 42-2 5.5-4.5 11.4-5.7 13-1.2 1.6-3.1 3.7-4.2 4.5-1.1 0.8-3.4 2-5.1 2.7-1.8 0.7-8.9 1.2-17.5 1.2-11.8 0-15.2-0.3-18.5-1.7-2.2-1-5.2-3.4-6.6-5.3-1.4-1.9-6.8-12.2-12-22.9-5.1-10.7-23-46.8-39.6-80.3-16.7-33.4-30.9-60.9-31.5-61.1-0.7-0.2-6-1.8-11.8-3.6-5.8-1.7-16.4-6-23.5-9.5-7.1-3.5-19.1-10.4-26.5-15.3-7.4-5-19.5-13.9-40-30.7l-19.2-0.1c-17.1 0-20.2-0.3-26.8-2.3-4.1-1.2-10.9-3.7-15-5.5-4.1-1.8-12.1-6.1-17.7-9.5-5.7-3.3-10.7-6.1-11.3-6.1-0.6 0-1.3 1.2-1.6 2.8-0.3 1.5-0.1 5.2 0.5 8.2 0.6 3.1 2.5 7.7 4.3 10.4 1.8 2.7 5.8 6.7 8.8 8.8 3 2.2 8.6 5.5 12.5 7.3 3.9 1.9 11.5 4.7 17 6.1 8.8 2.4 11.9 2.8 41.7 2.9l14.8 12.5-4.3 5.1c-2.3 2.8-6.9 7.1-10.2 9.6-3.3 2.5-9.5 6.6-21.8 13.8l-5.8 11c-3.3 6-17.3 33.7-31.2 61.5-13.9 27.8-29.1 58.6-33.9 68.5q-8.6 18-11.7 20.8c-1.7 1.5-4.8 3.1-6.9 3.7-2 0.5-9.8 1-17.2 0.9-7.8 0-14.8-0.6-16.5-1.2-1.7-0.7-4-1.9-5.2-2.7-1.1-0.8-3-3.1-4.1-5-1.2-1.9-5.3-12.3-9.2-23-3.9-10.7-13.9-38.2-22.2-61-8.2-22.8-20.6-57.5-27.5-77-6.9-19.5-14.5-41.4-17-48.5-2.4-7.1-11.7-33.9-20.5-59.5-8.8-25.6-17.9-52.1-20.3-59-2.4-6.9-8.7-25.3-14-41-5.4-15.7-13.2-38.6-17.5-51-4.3-12.4-11.2-32.2-15.4-44-4.1-11.8-12.5-35.7-18.6-53-6.1-17.3-11.8-33.5-12.6-36-0.7-2.5-1.4-5.6-1.4-7 0-1.4 1-4.3 2.3-6.5 1.2-2.2 4-4.9 6.2-6.2zm102.4 149c17 50.8 41 122.4 53.4 159 12.4 36.5 25.6 75 29.2 85.5 3.7 10.4 10.7 30.7 15.6 45 5 14.3 10.2 29.5 11.7 33.8l2.7 7.7c3-5.8 6.6-13.6 10.1-21 3.4-7.5 10-22 14.8-32.3 4.7-10.3 8.6-19.2 8.6-19.7 0-0.6-0.4-1-1-1-0.6 0-4.9-2.7-9.8-5.9-4.8-3.2-11.4-8.8-14.7-12.3-3.3-3.5-7.9-9.5-10.2-13.3-2.3-3.9-5.2-9.7-6.3-13-1.1-3.3-2.4-9.6-2.9-14-0.4-4.4-0.4-11.4-0.1-15.5 0.4-4.2 1.7-11.4 2.9-16 1.2-4.7 4.8-13.9 8.1-20.5 3.2-6.6 8.6-15.7 11.9-20.3 3.4-4.5 9.6-11.7 13.8-16 4.3-4.3 11.5-10.8 16-14.5 4.6-3.7 8.1-7.1 7.9-7.5-0.2-0.4-2.5-1.4-5.2-2.2-2.7-0.8-8-1.5-11.9-1.5-5.8 0-8.2 0.6-14 3.3-5.3 2.5-8.9 5.3-15 11.5-4.5 4.5-11.1 12.7-14.7 18.2-3.7 5.5-8.7 14.2-11.2 19.5-2.4 5.2-5.7 13.6-7.3 18.7-1.5 5.1-3.1 9.3-3.6 9.3-0.4 0-1.8-2.2-3.1-4.8-1.3-2.6-3.4-8.3-4.5-12.7-1.2-4.4-2.6-12.1-3.2-17-0.5-5-0.7-12.2-0.4-16 0.3-3.9 1.3-11.1 2.2-16l1.6-9c-4.3-14.8-11.8-38.8-19.5-63-7.6-24.2-18.9-59.1-25-77.5-6.1-18.5-12-35.7-13.2-38.3l-2.1-4.8c-32.9 0.1-42.5 0.4-42.5 0.8 0 0.4 13.9 42.4 30.9 93.3zm535.8-58c-5.8 17.8-14.1 43.7-18.5 57.5-4.4 13.7-10.7 33.5-14.1 44-3.3 10.4-8.8 28-12.2 39l-6.3 20c-0.2 38.1-0.5 42.4-2.5 51-1.3 5.5-3.7 13.8-5.3 18.5-1.7 4.6-5.1 12.5-7.6 17.5-2.6 4.9-7.3 12.6-10.6 17-3.2 4.4-10.9 12.9-17 19-6.5 6.4-15.3 13.9-21.4 18-5.6 3.8-10.2 7.3-10.2 7.7 0 0.4 1.3 3.6 2.9 7 1.6 3.5 6.9 14.8 11.9 25.3 4.9 10.4 12 25.2 15.8 32.7 3.8 7.6 7.2 13.5 7.5 13 0.4-0.4 2.7-6.8 5.2-14.2 2.5-7.5 8.2-24.1 12.7-37 4.5-13 12.2-35.2 17.2-49.5 4.9-14.3 12.1-35.3 16-46.5 3.9-11.3 18.3-53.8 32-94.5 13.7-40.7 32.8-97.7 42.4-126.5 9.5-28.9 17.4-53.1 17.4-53.8 0-0.9-5-1.2-21.5-1.2-19.4 0-21.5 0.1-22.4 1.7-0.5 1-5.6 16.4-11.4 34.3z"/>
</svg>